{
  "accessors": [
    {
      "bufferView": 2,
      "componentType": 5126,
      "count": 65532,
      "max": [
        0.6178820133209229,
        1.0010199546813965,
        0.2646369934082031
      ],
      "min": [
        -0.6199290156364441,
        -0.9793859720230103,
        -0.21149399876594543
      ],
      "type": "VEC3"
    },
    {
      "bufferView": 2,
      "byteOffset": 786384,
      "componentType": 5126,
      "count": 65532,
      "max": [
        0.99998939037323,
        0.9998590350151062,
        0.9999884366989136
      ],
      "min": [
        -0.9999894499778748,
        -0.9999768733978271,
        -0.9999822974205017
      ],
      "type": "VEC3"
    },
    {
      "bufferView": 1,
      "componentType": 5126,
      "count": 65532,
      "max": [
        0.9982370138168335,
        0.9981650114059448
      ],
      "min": [
        0.001744000008329749,
        0.001744000008329749
      ],
      "type": "VEC2"
    },
    {
      "bufferView": 0,
      "componentType": 5125,
      "count": 294063,
      "type": "SCALAR"
    },
    {
      "bufferView": 2,
      "byteOffset": 1572768,
      "componentType": 5126,
      "count": 65532,
      "max": [
        0.5133919715881348,
        0.8926029801368713,
        0.2597169876098633
      ],
      "min": [
        -0.5152450203895569,
        -1.010895013809204,
        -0.25482499599456787
      ],
      "type": "VEC3"
    },
    {
      "bufferView": 2,
      "byteOffset": 2359152,
      "componentType": 5126,
      "count": 65532,
      "max": [
        0.9999897480010986,
        0.9999274015426636,
        0.9999204277992249
      ],
      "min": [
        -0.9999930262565613,
        -0.9999898672103882,
        -0.9999995827674866
      ],
      "type": "VEC3"
    },
    {
      "bufferView": 1,
      "byteOffset": 524256,
      "componentType": 5126,
      "count": 65532,
      "max": [
        0.9982560276985168,
        0.9981899857521057
      ],
      "min": [
        0.001744000008329749,
        0.001744000008329749
      ],
      "type": "VEC2"
    },
    {
      "bufferView": 0,
      "byteOffset": 1176252,
      "componentType": 5125,
      "count": 290991,
      "type": "SCALAR"
    },
    {
      "bufferView": 2,
      "byteOffset": 3145536,
      "componentType": 5126,
      "count": 20881,
      "max": [
        0.4140219986438751,
        0.9997590184211731,
        0.2597169876098633
      ],
      "min": [
        -0.515438973903656,
        -1.010895013809204,
        -0.24986299872398376
      ],
      "type": "VEC3"
    },
    {
      "bufferView": 2,
      "byteOffset": 3396108,
      "componentType": 5126,
      "count": 20881,
      "max": [
        0.99998939037323,
        0.9999356865882874,
        0.9998152256011963
      ],
      "min": [
        -0.9999946355819702,
        -0.9997820258140564,
        -0.9999337792396545
      ],
      "type": "VEC3"
    },
    {
      "bufferView": 1,
      "byteOffset": 1048512,
      "componentType": 5126,
      "count": 20881,
      "max": [
        0.9982540011405945,
        0.9981939792633057
      ],
      "min": [
        0.001744000008329749,
        0.001744000008329749
      ],
      "type": "VEC2"
    },
    {
      "bufferView": 0,
      "byteOffset": 2340216,
      "componentType": 5125,
      "count": 73290,
      "type": "SCALAR"
    }
  ],
  "asset": {
    "extras": {
      "author": "v.a.c.u.u.m. (https://sketchfab.com/v.a.c.u.u.m.)",
      "license": "CC-BY-4.0 (http://creativecommons.org/licenses/by/4.0/)",
      "source": "https://sketchfab.com/3d-models/alien-v1-e55a173a0673400880ea4aa96494c117",
      "title": "Alien V1"
    },
    "generator": "Sketchfab-16.61.0",
    "version": "2.0"
  },
  "bufferViews": [
    {
      "buffer": 0,
      "byteLength": 2633376,
      "name": "floatBufferViews",
      "target": 34963
    },
    {
      "buffer": 0,
      "byteLength": 1215560,
      "byteOffset": 2633376,
      "byteStride": 8,
      "name": "floatBufferViews",
      "target": 34962
    },
    {
      "buffer": 0,
      "byteLength": 3646680,
      "byteOffset": 3848936,
      "byteStride": 12,
      "name": "floatBufferViews",
      "target": 34962
    }
  ],
  "buffers": [
    {
      "byteLength": 7495616,
      "uri": "scene.bin"
    }
  ],
  "images": [
    {
      "uri": "textures/Material.001_baseColor.png"
    }
  ],
  "materials": [
    {
      "doubleSided": true,
      "name": "Material.001",
      "pbrMetallicRoughness": {
        "baseColorTexture": {
          "index": 0
        },
        "metallicFactor": 0.0,
        "roughnessFactor": 0.8211145618000169
      }
    }
  ],
  "meshes": [
    {
      "name": "Mesh1_Mesh1.030_Material.001_0",
      "primitives": [
        {
          "attributes": {
            "NORMAL": 1,
            "POSITION": 0,
            "TEXCOORD_0": 2
          },
          "indices": 3,
          "material": 0,
          "mode": 4
        }
      ]
    },
    {
      "name": "Mesh1_Mesh1.030_Material.001_0",
      "primitives": [
        {
          "attributes": {
            "NORMAL": 5,
            "POSITION": 4,
            "TEXCOORD_0": 6
          },
          "indices": 7,
          "material": 0,
          "mode": 4
        }
      ]
    },
    {
      "name": "Mesh1_Mesh1.030_Material.001_0",
      "primitives": [
        {
          "attributes": {
            "NORMAL": 9,
            "POSITION": 8,
            "TEXCOORD_0": 10
          },
          "indices": 11,
          "material": 0,
          "mode": 4
        }
      ]
    }
  ],
  "nodes": [
    {
      "children": [
        1
      ],
      "matrix": [
        1.0,
        0.0,
        0.0,
        0.0,
        0.0,
        2.220446049250313e-16,
        -1.0,
        0.0,
        0.0,
        1.0,
        2.220446049250313e-16,
        0.0,
        0.0,
        0.0,
        0.0,
        1.0
      ],
      "name": "Sketchfab_model"
    },
    {
      "children": [
        2
      ],
      "matrix": [
        0.009999999776482582,
        0.0,
        0.0,
        0.0,
        0.0,
        0.0,
        0.009999999776482582,
        0.0,
        0.0,
        -0.009999999776482582,
        0.0,
        0.0,
        0.0,
        0.0,
        0.0,
        1.0
      ],
      "name": "A_humanoid_abominatio_0221125921_texture.fbx"
    },
    {
      "children": [
        3
      ],
      "name": "RootNode"
    },
    {
      "children": [
        4,
        5,
        6
      ],
      "matrix": [
        100.0,
        0.0,
        0.0,
        0.0,
        0.0,
        99.99999999999972,
        -7.5497901264043296e-06,
        0.0,
        0.0,
        7.5497901264043296e-06,
        99.99999999999972,
        0.0,
        0.0,
        0.0,
        0.0,
        1.0
      ],
      "name": "Mesh1_Mesh1.030"
    },
    {
      "mesh": 0,
      "name": "Mesh1_Mesh1.030_Material.001_0"
    },
    {
      "mesh": 1,
      "name": "Mesh1_Mesh1.030_Material.001_0"
    },
    {
      "mesh": 2,
      "name": "Mesh1_Mesh1.030_Material.001_0"
    }
  ],
  "samplers": [
    {
      "magFilter": 9729,
      "minFilter": 9987,
      "wrapS": 10497,
      "wrapT": 10497
    }
  ],
  "scene": 0,
  "scenes": [
    {
      "name": "Sketchfab_Scene",
      "nodes": [
        0
      ]
    }
  ],
  "textures": [
    {
      "sampler": 0,
      "source": 0
    }
  ]
}
